<svg xmlns="http://www.w3.org/2000/svg" width="25.5" height="24.893" viewBox="0 0 25.5 24.893"><defs><style>.a{fill:#414142;}</style></defs><g transform="translate(0 -6.097)"><g transform="translate(0 6.097)"><path class="a" d="M22.591,17.613a9.76,9.76,0,0,0-.614-2.715l2.3-1.841L20.54,8.395l-2.284,1.829A9.754,9.754,0,0,0,15.71,9V6.1H9.736V9.018A9.744,9.744,0,0,0,7.085,10.34L4.777,8.546,1.111,13.263,3.46,15.088A9.775,9.775,0,0,0,2.9,17.8L0,18.495,1.39,24.3l2.042-.488,3.108-3.108a6.622,6.622,0,1,1,4.132,4L6.244,29.133l3.939,1.857,1.31-2.78a9.891,9.891,0,0,0,2.7-.022l1.342,2.743L20.9,28.3l-1.339-2.736a9.818,9.818,0,0,0,1.7-2.133l2.94.658,1.3-5.83Z" transform="translate(0 -6.097)"/></g><g transform="translate(1.111 13.75)"><path class="a" d="M38.188,162.7l-.419-1.054-2.523,2.522-1.133-1.133,2.523-2.522-1.054-.42a4.671,4.671,0,0,0-5.777,6.649l-7.5,7.5,1.952,1.952,7.573-7.573A4.669,4.669,0,0,0,38.188,162.7Z" transform="translate(-22.301 -159.748)"/></g></g></svg>